<svg width="18" height="20" viewBox="0 0 18 20" fill="none" xmlns="http://www.w3.org/2000/svg">
<path d="M2 9.09V4.39L8 2.14L14 4.39V8.08C14.71 8.18 15.38 8.39 16 8.68V3L8 0L0 3V9.09C0 14.14 3.41 18.85 8 20C8.03 19.99 8.05 19.98 8.08 19.98C7.29 19.2 6.68 18.22 6.33 17.14C3.76 15.53 2 12.42 2 9.09Z" fill="white"/>
<path d="M13 10C10.24 10 8 12.24 8 15C8 17.76 10.24 20 13 20C15.76 20 18 17.76 18 15C18 12.24 15.76 10 13 10ZM16 15.5H13.5V18H12.5V15.5H10V14.5H12.5V12H13.5V14.5H16V15.5Z" fill="white"/>
</svg>
